<?xml version="1.0" encoding="UTF-8"?>
<svg version="1.1" xmlns="http://www.w3.org/2000/svg" width="175" height="161">
<path d="M0 0 C57.75 0 115.5 0 175 0 C175 53.13 175 106.26 175 161 C117.25 161 59.5 161 0 161 C0 107.87 0 54.74 0 0 Z " fill="#FCFCFE" transform="translate(0,0)"/>
<path d="M0 0 C12.87 0 25.74 0 39 0 C39 0.99 39 1.98 39 3 C37.68 3.33 36.36 3.66 35 4 C35.54057888 9.64253862 37.70893893 13.93651461 40.25390625 18.8984375 C40.67421616 19.73339752 41.09452606 20.56835754 41.52757263 21.42861938 C42.86505253 24.08127982 44.21357898 26.72814232 45.5625 29.375 C46.47404328 31.17801351 47.38485878 32.98139516 48.29492188 34.78515625 C50.52154119 39.19441254 52.75808124 43.59850446 55 48 C55.88042969 47.65066406 56.76085937 47.30132812 57.66796875 46.94140625 C58.82941406 46.48636719 59.99085937 46.03132813 61.1875 45.5625 C62.33605469 45.11003906 63.48460937 44.65757813 64.66796875 44.19140625 C69.19243947 42.5736295 73.29840634 41.88902549 78.08203125 41.68359375 C79.01337891 41.64169922 79.94472656 41.59980469 80.90429688 41.55664062 C81.86400391 41.51732422 82.82371094 41.47800781 83.8125 41.4375 C84.79154297 41.39431641 85.77058594 41.35113281 86.77929688 41.30664062 C89.18607027 41.2009774 91.59293983 41.09887673 94 41 C96.4315028 36.37892742 98.8522386 31.75243697 101.26318359 27.12060547 C102.08479238 25.54582827 102.90931851 23.97256954 103.73681641 22.40087891 C104.92601122 20.14098047 106.10459437 17.87582202 107.28125 15.609375 C107.65310425 14.90818542 108.0249585 14.20699585 108.40808105 13.48455811 C110.21072561 9.98690708 111 8.0156778 111 4 C109.68 3.67 108.36 3.34 107 3 C107 2.01 107 1.02 107 0 C120.53 0 134.06 0 148 0 C148 0.99 148 1.98 148 3 C145.525 3.99 145.525 3.99 143 5 C143 41.96 143 78.92 143 117 C144.65 117.66 146.3 118.32 148 119 C148 119.99 148 120.98 148 122 C137.44 122 126.88 122 116 122 C116 121.01 116 120.02 116 119 C117.65 118.34 119.3 117.68 121 117 C121 85.98 121 54.96 121 23 C117.37 30.26 113.74 37.52 110 45 C110.66 45 111.32 45 112 45 C112 45.99 112 46.98 112 48 C111.41563171 48.0301268 110.83126343 48.0602536 110.22918701 48.09129333 C106.80094915 49.48878156 105.85992764 52.36265289 104.33300781 55.53930664 C103.99104874 56.22220261 103.64908966 56.90509857 103.29676819 57.60868835 C102.16882201 59.86946078 101.06103682 62.13950764 99.953125 64.41015625 C99.17535495 65.97875066 98.39634687 67.54673177 97.6161499 69.11412048 C95.56523067 73.24269595 93.53126536 77.37940358 91.50067139 81.51800537 C89.42595075 85.73903063 87.33537013 89.95218156 85.24609375 94.16601562 C81.14846568 102.43636356 77.06869803 110.71538571 73 119 C72.34 119 71.68 119 71 119 C70.46632813 117.84886719 69.93265625 116.69773437 69.3828125 115.51171875 C64.60646658 105.28133878 59.58188961 95.22765983 54.26171875 85.26953125 C48 73.49492338 48 73.49492338 48 71 C47.34 71 46.68 71 46 71 C44.80984903 77.40034096 44.7782923 83.63191803 44.75 90.125 C44.729375 91.28515625 44.70875 92.4453125 44.6875 93.640625 C44.63270029 105.8883596 46.60866601 117.771092 54.9375 127.19140625 C64.10588875 136.08146891 73.19914958 137.35184155 85.47973633 137.38085938 C91.97582898 137.26212678 97.43388975 136.19383823 104 135 C104 120.81 104 106.62 104 92 C99.38 92 94.76 92 90 92 C90 91.34 90 90.68 90 90 C97.92 90 105.84 90 114 90 C114 104.19 114 118.38 114 133 C97.34045543 141.32977228 81.11669773 144.17400827 63.12109375 138.265625 C58.36423192 136.33668478 54.17175011 133.98089146 50 131 C49.35417969 130.54882812 48.70835938 130.09765625 48.04296875 129.6328125 C40.7487755 124.00722555 35.43875702 114.47950857 33.44921875 105.51953125 C31.72282809 91.99363574 30.96838893 77.12210134 38 65 C38.59167969 64.35546875 39.18335938 63.7109375 39.79296875 63.046875 C40.19128906 62.37140625 40.58960938 61.6959375 41 61 C39.74086234 56.18239129 37.54894043 51.83436308 35.3046875 47.4140625 C34.95238068 46.71227875 34.60007385 46.010495 34.23709106 45.28744507 C33.12016304 43.06470966 31.99768046 40.84483451 30.875 38.625 C30.11291144 37.11086316 29.35118888 35.59654204 28.58984375 34.08203125 C26.73078965 30.38587569 24.86675157 26.6922735 23 23 C22.97686703 35.09114871 22.95908002 47.18229218 22.94818783 59.27345848 C22.9429611 64.88739171 22.93586724 70.50130984 22.92456055 76.11523438 C22.91372424 81.52926406 22.90772158 86.94327919 22.90512276 92.35731888 C22.90326986 94.42665461 22.89965181 96.4959895 22.89426994 98.56531906 C22.88704968 101.45551041 22.88600948 104.34564099 22.88647461 107.23583984 C22.88287933 108.09826797 22.87928406 108.96069611 22.87557983 109.84925842 C22.76512388 114.05842183 22.76512388 114.05842183 24 118 C26.02463255 118.65213292 26.02463255 118.65213292 28 119 C28 119.99 28 120.98 28 122 C18.76 122 9.52 122 0 122 C0 121.01 0 120.02 0 119 C2.475 118.01 2.475 118.01 5 117 C5 80.04 5 43.08 5 5 C2.525 4.01 2.525 4.01 0 3 C0 2.01 0 1.02 0 0 Z " fill="#0950AF" transform="translate(13,11)"/>
<path d="M0 0 C13.53 0 27.06 0 41 0 C41 0.99 41 1.98 41 3 C39.35 3.66 37.7 4.32 36 5 C36 41.96 36 78.92 36 117 C37.65 117.66 39.3 118.32 41 119 C41 119.99 41 120.98 41 122 C30.44 122 19.88 122 9 122 C9 121.01 9 120.02 9 119 C11.475 118.01 11.475 118.01 14 117 C14 85.98 14 54.96 14 23 C10.37 30.26 6.74 37.52 3 45 C-2.28 44.34 -7.56 43.68 -13 43 C-11.43156769 38.29470308 -9.82991135 34.53339579 -7.5234375 30.2109375 C-6.84615786 28.92718688 -6.16908044 27.64332956 -5.4921875 26.359375 C-4.43075499 24.35871762 -3.3667232 22.35952044 -2.29882812 20.36230469 C-1.26239312 18.4197022 -0.23612933 16.47199092 0.7890625 14.5234375 C1.40475098 13.36763184 2.02043945 12.21182617 2.65478516 11.02099609 C4.27118817 7.94214414 4.27118817 7.94214414 4 4 C2.68 3.67 1.36 3.34 0 3 C0 2.01 0 1.02 0 0 Z " fill="#1C05AE" transform="translate(120,11)"/>
<path d="M0 0 C12.87 0 25.74 0 39 0 C39 0.99 39 1.98 39 3 C37.68 3.33 36.36 3.66 35 4 C35.54057888 9.64253862 37.70893893 13.93651461 40.25390625 18.8984375 C40.67421616 19.73339752 41.09452606 20.56835754 41.52757263 21.42861938 C42.86505253 24.08127982 44.21357898 26.72814232 45.5625 29.375 C46.47404328 31.17801351 47.38485878 32.98139516 48.29492188 34.78515625 C50.52154119 39.19441254 52.75808124 43.59850446 55 48 C52.16357706 50.84748793 49.3459925 53.67438405 46.3125 56.3125 C45.73113281 56.82425781 45.14976563 57.33601563 44.55078125 57.86328125 C43 59 43 59 41 59 C35.06 47.12 29.12 35.24 23 23 C22.97744059 35.09115204 22.95908002 47.18229019 22.94818783 59.27345848 C22.9429611 64.88739171 22.93586724 70.50130984 22.92456055 76.11523438 C22.91372424 81.52926406 22.90772158 86.94327919 22.90512276 92.35731888 C22.90326986 94.42665461 22.89965181 96.4959895 22.89426994 98.56531906 C22.88704968 101.45551041 22.88600948 104.34564099 22.88647461 107.23583984 C22.88287933 108.09826797 22.87928406 108.96069611 22.87557983 109.84925842 C22.76512388 114.05842183 22.76512388 114.05842183 24 118 C26.02463255 118.65213292 26.02463255 118.65213292 28 119 C28 119.99 28 120.98 28 122 C18.76 122 9.52 122 0 122 C0 121.01 0 120.02 0 119 C2.475 118.01 2.475 118.01 5 117 C5 80.04 5 43.08 5 5 C2.525 4.01 2.525 4.01 0 3 C0 2.01 0 1.02 0 0 Z " fill="#1B03AE" transform="translate(13,11)"/>
<path d="M0 0 C2.12769662 0.06447566 4.25339183 0.20171192 6.375 0.375 C8.11910156 0.51035156 8.11910156 0.51035156 9.8984375 0.6484375 C13 1 13 1 16 2 C14.61588422 6.48136585 12.84661059 10.54988272 10.74365234 14.73974609 C10.42149246 15.38435791 10.09933258 16.02896973 9.76741028 16.69311523 C8.71070432 18.80514335 7.64837411 20.91428716 6.5859375 23.0234375 C5.84857797 24.49442307 5.11157348 25.96558667 4.37490845 27.43692017 C2.44185192 31.29542333 0.50400121 35.15149897 -1.43487549 39.00708008 C-3.41522762 42.94726888 -5.39101174 46.88974665 -7.3671875 50.83203125 C-11.2403377 58.5569284 -15.11855831 66.27926568 -19 74 C-19.66 74 -20.32 74 -21 74 C-21.53367187 72.84886719 -22.06734375 71.69773437 -22.6171875 70.51171875 C-26.63798328 61.90042316 -30.77907606 53.38752429 -35.25 45 C-40.78003722 34.5841606 -40.78003722 34.5841606 -43.1875 29.5625 C-43.57292969 28.75941406 -43.95835938 27.95632812 -44.35546875 27.12890625 C-45.41742651 23.62122758 -44.34425242 21.68003094 -42.73046875 18.4921875 C-42.22128906 17.62851563 -41.71210937 16.76484375 -41.1875 15.875 C-40.68605469 15.00617188 -40.18460937 14.13734375 -39.66796875 13.2421875 C-37.89122242 10.85377441 -36.651673 10.20272921 -34 9 C-32.41524955 11.99925342 -30.83246479 14.99954008 -29.25 18 C-28.8065625 18.83917969 -28.363125 19.67835937 -27.90625 20.54296875 C-25.20630754 25.66491841 -22.57014546 30.81166899 -20 36 C-15.34367086 28.50007872 -11.20919702 20.79287857 -7.1875 12.9375 C-6.03681696 10.69576137 -4.88456236 8.45482846 -3.73046875 6.21484375 C-3.22926514 5.23636475 -2.72806152 4.25788574 -2.21166992 3.24975586 C-1 1 -1 1 0 0 Z " fill="#1B03AE" transform="translate(105,56)"/>
<path d="M0 0 C0.84755859 0.00322266 1.69511719 0.00644531 2.56835938 0.00976562 C3.44943359 0.01814453 4.33050781 0.02652344 5.23828125 0.03515625 C6.57729492 0.04192383 6.57729492 0.04192383 7.94335938 0.04882812 C10.14590112 0.06060642 12.34830724 0.07705461 14.55078125 0.09765625 C8.41172448 12.53408358 2.02074566 24.83048922 -4.44921875 37.09765625 C-8.94034082 33.12252478 -11.10177677 27.42764273 -13.76171875 22.16015625 C-14.33728516 21.06251953 -14.91285156 19.96488281 -15.50585938 18.83398438 C-16.04017578 17.77759766 -16.57449219 16.72121094 -17.125 15.6328125 C-17.61911377 14.66738525 -18.11322754 13.70195801 -18.62231445 12.70727539 C-19.44921875 10.09765625 -19.44921875 10.09765625 -18.73681641 7.84228516 C-16.99257354 5.47892536 -15.16188756 4.64378843 -12.51171875 3.41015625 C-11.63644531 2.99378906 -10.76117188 2.57742187 -9.859375 2.1484375 C-6.39781206 0.63926338 -3.7453642 -0.02513667 0 0 Z " fill="#FBFBFD" transform="translate(90.44921875,55.90234375)"/>
<path d="M0 0 C7.92 0 15.84 0 24 0 C24 14.19 24 28.38 24 43 C15 47.5 15 47.5 10 48 C10.33 47.01 10.66 46.02 11 45 C11.99 45 12.98 45 14 45 C14 30.81 14 16.62 14 2 C9.38 2 4.76 2 0 2 C0 1.34 0 0.68 0 0 Z " fill="#014AAD" transform="translate(103,101)"/>
<path d="M0 0 C11.52871519 -0.21255609 22.66063611 -0.33959767 34 2 C35.40765625 2.28037109 35.40765625 2.28037109 36.84375 2.56640625 C37.5553125 2.70949219 38.266875 2.85257813 39 3 C39 3.99 39 4.98 39 6 C32.32829809 5.06596173 32.32829809 5.06596173 29.453125 4.48828125 C23.63305769 3.66530793 17.75094294 3.6774944 11.87890625 3.5703125 C10.92628906 3.539375 9.97367188 3.5084375 8.9921875 3.4765625 C8.12964355 3.45674316 7.26709961 3.43692383 6.37841797 3.41650391 C3.55922383 2.92281214 2.13564231 1.86011541 0 0 Z " fill="#326DBD" transform="translate(86,53)"/>
<path d="M0 0 C-0.33 0.66 -0.66 1.32 -1 2 C-6.93431875 3.91127834 -12.30291421 4.25620866 -18.5 4.125 C-19.73363281 4.11146484 -19.73363281 4.11146484 -20.9921875 4.09765625 C-22.99492083 4.07436865 -24.99750154 4.03850959 -27 4 C-27.33 3.01 -27.66 2.02 -28 1 C-27.13834229 0.96241577 -27.13834229 0.96241577 -26.25927734 0.92407227 C-23.63100279 0.80730125 -21.00301605 0.68494581 -18.375 0.5625 C-17.47136719 0.52318359 -16.56773438 0.48386719 -15.63671875 0.44335938 C-11.85213553 0.26379886 -8.21714656 0.03683306 -4.4765625 -0.59765625 C-2 -1 -2 -1 0 0 Z " fill="#2363B8" transform="translate(114,148)"/>
<path d="M0 0 C6.0018137 -0.21824777 11.19233704 0.4943096 17 2 C17 2.99 17 3.98 17 5 C11.27601207 4.25339288 5.65146223 3.17122859 0 2 C0 1.34 0 0.68 0 0 Z " fill="#0B4CB0" transform="translate(108,54)"/>
</svg>
